<?xml version="1.0" encoding="utf-8"?>
<!-- Generator: Adobe Illustrator 19.1.0, SVG Export Plug-In . SVG Version: 6.00 Build 0)  -->
<svg version="1.1" id="Layer_1" xmlns="http://www.w3.org/2000/svg" xmlns:xlink="http://www.w3.org/1999/xlink" x="0px" y="0px"
	 viewBox="-234.3 0 4902.5 250" style="enable-background:new -234.3 0 4902.5 250;" xml:space="preserve">
<style type="text/css">
	.st0{fill:none;stroke:#ACD373;stroke-width:40;stroke-linecap:round;stroke-miterlimit:10;}
	.st1{fill:none;stroke:#FDC689;stroke-width:40;stroke-linecap:round;stroke-miterlimit:10;}
</style>
<line class="st0" x1="881.7" y1="256" x2="881.7" y2="139.4"/>
<line class="st0" x1="935.1" y1="267.9" x2="935.1" y2="139.8"/>
<line class="st0" x1="988.5" y1="263.7" x2="988.5" y2="135.5"/>
<line class="st0" x1="1042" y1="259.4" x2="1042" y2="131.3"/>
<line class="st0" x1="1095.7" y1="246.6" x2="1095.7" y2="131.3"/>
<line class="st0" x1="1149.7" y1="247" x2="1149.7" y2="131.7"/>
<line class="st0" x1="1203.7" y1="251.7" x2="1203.7" y2="135.1"/>
<line class="st0" x1="1257.1" y1="263.7" x2="1257.1" y2="135.5"/>
<line class="st0" x1="1310.5" y1="259.4" x2="1310.5" y2="131.3"/>
<line class="st0" x1="1364" y1="255.1" x2="1364" y2="127"/>
<line class="st0" x1="1417.7" y1="242.3" x2="1417.7" y2="127"/>
<line class="st0" x1="1471.7" y1="242.7" x2="1471.7" y2="127.4"/>
<line class="st1" x1="1523.3" y1="252.6" x2="1523.3" y2="107"/>
<line class="st1" x1="1576.5" y1="248.7" x2="1576.5" y2="103"/>
<line class="st1" x1="1628.7" y1="255.1" x2="1628.7" y2="109.5"/>
<line class="st1" x1="1680.9" y1="257.3" x2="1680.9" y2="111.6"/>
<line class="st1" x1="1732.1" y1="266.5" x2="1732.1" y2="120.8"/>
<line class="st0" x1="1782.3" y1="242.3" x2="1782.3" y2="127"/>
<line class="st0" x1="1833.5" y1="246.2" x2="1833.5" y2="130.8"/>
<line class="st0" x1="1885.7" y1="247" x2="1885.7" y2="167.5"/>
<line class="st0" x1="1939.1" y1="250.9" x2="1939.1" y2="178.3"/>
<line class="st0" x1="1992.5" y1="257.2" x2="1992.5" y2="184.6"/>
<line class="st0" x1="2046" y1="259.6" x2="2046" y2="187"/>
<line class="st0" x1="2099.7" y1="252.3" x2="2099.7" y2="187"/>
<line class="st0" x1="2153.7" y1="252.6" x2="2153.7" y2="187.2"/>
<line class="st0" x1="2207.7" y1="255.2" x2="2207.7" y2="189.2"/>
<line class="st0" x1="2261.1" y1="262" x2="2261.1" y2="189.4"/>
<line class="st0" x1="2314.5" y1="259.6" x2="2314.5" y2="187"/>
<line class="st0" x1="2368" y1="257.2" x2="2368" y2="184.6"/>
<line class="st0" x1="2421.7" y1="249.9" x2="2421.7" y2="184.6"/>
<line class="st0" x1="2475.7" y1="250.1" x2="2475.7" y2="184.8"/>
<line class="st0" x1="2527.5" y1="244.4" x2="2527.5" y2="206.4"/>
<line class="st0" x1="2581.5" y1="244.5" x2="2581.5" y2="206.5"/>
<line class="st0" x1="2635.5" y1="246.1" x2="2635.5" y2="207.7"/>
<line class="st0" x1="2688.9" y1="250" x2="2688.9" y2="207.8"/>
<line class="st0" x1="2742.3" y1="248.6" x2="2742.3" y2="206.4"/>
<line class="st0" x1="2795.8" y1="247.2" x2="2795.8" y2="205"/>
<line class="st0" x1="2849.5" y1="243" x2="2849.5" y2="205"/>
<line class="st0" x1="346" y1="263.6" x2="346" y2="179"/>
<line class="st0" x1="292.5" y1="263.6" x2="292.5" y2="179"/>
<line class="st0" x1="239.1" y1="263.6" x2="239.1" y2="179"/>
<line class="st0" x1="185.7" y1="263.6" x2="185.7" y2="221.3"/>
<line class="st0" x1="399.4" y1="263.6" x2="399.4" y2="153.6"/>
<line class="st0" x1="132.3" y1="263.6" x2="132.3" y2="242.5"/>
<line class="st0" x1="452.8" y1="263.6" x2="452.8" y2="153.6"/>
<line class="st0" x1="506.3" y1="263.6" x2="506.3" y2="153.6"/>
<line class="st0" x1="559.4" y1="264.4" x2="559.4" y2="164.2"/>
<line class="st0" x1="612.8" y1="264.4" x2="612.8" y2="154.3"/>
<line class="st0" x1="666.3" y1="264.4" x2="666.3" y2="154.3"/>
<line class="st0" x1="719.7" y1="264.4" x2="719.7" y2="154.3"/>
<line class="st0" x1="773.4" y1="264.4" x2="773.4" y2="165.3"/>
<line class="st0" x1="827.4" y1="263.3" x2="827.4" y2="164.2"/>
<g>
	<line class="st0" x1="2907.7" y1="266.6" x2="2907.7" y2="194"/>
	<line class="st0" x1="2961.1" y1="272.9" x2="2961.1" y2="200.3"/>
	<line class="st0" x1="3014.6" y1="275.4" x2="3014.6" y2="202.8"/>
	<line class="st0" x1="3068.3" y1="268.1" x2="3068.3" y2="202.8"/>
	<line class="st0" x1="3122.3" y1="268.3" x2="3122.3" y2="203"/>
	<line class="st0" x1="3176.3" y1="271" x2="3176.3" y2="204.9"/>
	<line class="st0" x1="3229.7" y1="277.8" x2="3229.7" y2="205.2"/>
	<line class="st0" x1="3283.1" y1="275.4" x2="3283.1" y2="202.8"/>
	<line class="st0" x1="3336.6" y1="272.9" x2="3336.6" y2="200.3"/>
	<line class="st0" x1="3390.3" y1="265.7" x2="3390.3" y2="200.3"/>
	<line class="st0" x1="3444.3" y1="265.9" x2="3444.3" y2="200.6"/>
	<line class="st0" x1="3496.1" y1="260.1" x2="3496.1" y2="222.2"/>
	<line class="st0" x1="3550.1" y1="260.3" x2="3550.1" y2="222.3"/>
	<line class="st0" x1="3604.1" y1="261.8" x2="3604.1" y2="223.4"/>
	<line class="st0" x1="3657.5" y1="265.8" x2="3657.5" y2="223.6"/>
	<line class="st0" x1="3710.9" y1="264.4" x2="3710.9" y2="222.2"/>
	<line class="st0" x1="3764.4" y1="263" x2="3764.4" y2="220.8"/>
	<line class="st0" x1="3818.1" y1="258.7" x2="3818.1" y2="220.8"/>
</g>
<line class="st0" x1="3868.6" y1="286.9" x2="3868.6" y2="214.3"/>
<line class="st0" x1="3922" y1="293.2" x2="3922" y2="220.6"/>
<line class="st0" x1="3975.5" y1="295.6" x2="3975.5" y2="223"/>
<line class="st0" x1="4029.2" y1="288.3" x2="4029.2" y2="223"/>
<line class="st0" x1="4083.2" y1="288.6" x2="4083.2" y2="223.2"/>
<line class="st0" x1="4137.2" y1="291.2" x2="4137.2" y2="225.2"/>
<line class="st0" x1="4190.6" y1="298" x2="4190.6" y2="225.4"/>
<line class="st0" x1="4244" y1="295.6" x2="4244" y2="223"/>
<line class="st0" x1="4297.5" y1="293.2" x2="4297.5" y2="220.6"/>
<line class="st0" x1="4351.2" y1="285.9" x2="4351.2" y2="220.6"/>
<line class="st0" x1="4405.2" y1="286.2" x2="4405.2" y2="220.8"/>
<line class="st0" x1="4457" y1="280.4" x2="4457" y2="242.4"/>
<line class="st0" x1="4511" y1="280.5" x2="4511" y2="242.6"/>
<line class="st0" x1="4565" y1="282.1" x2="4565" y2="243.7"/>
<line class="st0" x1="4618.4" y1="286" x2="4618.4" y2="243.8"/>
</svg>
