<?xml version="1.0" encoding="utf-8"?>
<!-- Generator: Adobe Illustrator 16.0.4, SVG Export Plug-In . SVG Version: 6.00 Build 0)  -->
<!DOCTYPE svg PUBLIC "-//W3C//DTD SVG 1.1//EN" "http://www.w3.org/Graphics/SVG/1.1/DTD/svg11.dtd">
<svg version="1.1" id="Layer_1" xmlns="http://www.w3.org/2000/svg" xmlns:xlink="http://www.w3.org/1999/xlink" x="0px" y="0px"
	 width="100px" height="100px" viewBox="0 0 100 100" enable-background="new 0 0 100 100" xml:space="preserve">
<symbol  id="User2" viewBox="-10.079 -12.777 20.156 25.751">
	<path fill="#FFFFFF" stroke="#000000" stroke-miterlimit="10" d="M9.577-1.609L7.573,2.723v1.163v0.273
		c-0.066,2.309-0.937,4.271-2.61,5.889c-1.676,1.616-3.668,2.426-5.979,2.426c-2.359,0-4.376-0.842-6.052-2.524
		c-1.674-1.684-2.512-3.705-2.512-6.063c0-1.535,0.371-2.942,1.114-4.221c0.742-1.278,1.724-2.297,2.945-3.058v-8.885h9.084v5.199
		h3.291l0.718,0.715v1.314l0.792,0.792L7.771-3.639l0.594,0.595L8.043-2.253h1.534V-1.609z"/>
</symbol>
<use xlink:href="#User2"  width="20.156" height="25.751" id="XMLID_1_" x="-10.079" y="-12.777" transform="matrix(3.5016 0 0 -3.5016 52 49.2397)" overflow="visible"/>
</svg>
